# Blender 4.2.0
# www.blender.org
mtllib pda_firstperson.mtl
o Cube
v -0.979358 0.448076 1.164961
v 1.050309 0.223038 -2.297578
v 1.046582 0.523968 -1.857255
v -0.979358 0.448076 -1.807272
v 1.358265 0.223038 -1.857255
v 1.049118 0.370742 -2.232244
v 0.979358 0.448076 1.164961
v 1.201461 0.223038 -2.232244
v 1.196037 0.366095 -2.183324
v 0.979358 0.448076 -1.807272
v 1.199626 0.479276 -1.857255
v 1.047773 0.479316 -2.073377
v 1.195473 0.445860 -2.066570
v 1.312571 0.223038 -2.073377
v 1.312060 0.370681 -1.857255
v 1.277897 0.366044 -2.066586
v 1.050309 0.014722 -2.297578
v 1.358265 0.014722 -1.857255
v 1.204287 0.014722 -2.238586
v 1.317007 0.014722 -2.077417
v 1.289585 0.223038 1.758772
v 1.358265 0.223038 0.889215
v 1.046432 0.523968 1.329538
v 1.323082 0.223038 1.485001
v 1.262816 0.370572 1.637639
v 1.296908 0.366037 1.427667
v 1.312269 0.370347 1.028519
v 1.348217 0.223038 1.166772
v 1.312744 0.365846 1.232557
v 1.174748 0.479518 1.482206
v 1.199208 0.479497 1.188197
v 1.256607 0.446099 1.332950
v 1.358265 0.014722 0.889215
v 1.289585 0.014722 1.758772
v 1.050309 0.014722 1.329538
v 1.349064 0.014722 1.166883
v 1.323925 0.014722 1.485163
v -1.050309 0.223038 -2.297578
v -1.358265 0.223038 -1.857255
v -1.046582 0.523968 -1.857255
v -1.204767 0.223038 -2.238753
v -1.049129 0.373306 -2.238753
v -1.197086 0.366946 -2.181612
v -1.315943 0.373306 -1.857255
v -1.317805 0.223038 -2.077128
v -1.276669 0.366946 -2.067823
v -1.047761 0.483765 -2.077128
v -1.201537 0.483765 -1.857255
v -1.196123 0.444713 -2.067823
v -1.358265 0.014722 -1.857255
v -1.050309 0.014722 -2.297578
v -1.317007 0.014722 -2.077417
v -1.204287 0.014722 -2.238586
v -1.289585 0.223038 1.758772
v -1.046432 0.523968 1.329538
v -1.358265 0.223038 0.889215
v -1.262816 0.370572 1.637639
v -1.323082 0.223038 1.485001
v -1.296908 0.366037 1.427667
v -1.199208 0.479497 1.188197
v -1.174748 0.479517 1.482206
v -1.256606 0.446099 1.332950
v -1.348217 0.223038 1.166772
v -1.312269 0.370347 1.028519
v -1.312744 0.365846 1.232557
v -1.289585 0.014722 1.758772
v -1.358265 0.014722 0.889215
v -1.050309 0.014722 1.329538
v -1.323925 0.014722 1.485163
v -1.349064 0.014722 1.166883
v -0.890020 0.014722 2.331312
v -1.266655 0.014722 1.902079
v -1.053199 0.014722 2.273806
v -1.191057 0.014722 2.116695
v -1.266655 0.223038 1.902079
v -0.890020 0.223038 2.331312
v -0.956440 0.523968 1.890989
v -1.187585 0.223038 2.112236
v -1.218214 0.370784 1.915324
v -1.153982 0.366165 2.109818
v -0.911244 0.370719 2.266000
v -1.050933 0.223038 2.267972
v -1.057604 0.366110 2.219919
v -1.106234 0.479373 1.911315
v -0.935217 0.479332 2.107077
v -1.075015 0.445924 2.108393
v 1.266655 0.223038 1.902079
v 0.956440 0.523968 1.890989
v 0.890020 0.223038 2.331312
v 1.224799 0.373306 1.898569
v 1.191632 0.223038 2.118442
v 1.152409 0.366946 2.105883
v 0.922861 0.483765 2.108833
v 1.110931 0.483765 1.894498
v 1.072243 0.444713 2.103017
v 1.053384 0.223038 2.275996
v 0.898480 0.373306 2.270458
v 1.055078 0.366946 2.216805
v 1.266655 0.014722 1.902079
v 0.890020 0.014722 2.331312
v 1.191057 0.014722 2.116695
v 1.053199 0.014722 2.273806
v -0.979358 0.523968 1.164961
v -0.979358 0.523968 -1.807272
v 0.979358 0.523968 -1.807272
v 0.979358 0.523968 1.164961
vn -0.0000 -1.0000 -0.0000
vn 0.1679 -0.0026 0.9858
vn 0.1610 0.1919 0.9681
vn -0.1665 0.1890 0.9678
vn -0.1804 0.0078 0.9836
vn -0.9793 0.1424 0.1438
vn -0.9901 0.0010 0.1405
vn -0.9685 0.0056 0.2491
vn -0.9603 0.1404 0.2412
vn 0.9901 0.0010 0.1405
vn 0.9806 0.1367 0.1405
vn 0.9619 0.1370 0.2368
vn 0.9700 -0.0013 0.2432
vn -0.0000 1.0000 -0.0000
vn -0.1297 0.9873 -0.0914
vn -0.1621 0.9867 0.0139
vn 0.1623 0.9867 0.0125
vn 0.1331 0.9869 -0.0911
vn 0.9952 0.0061 -0.0972
vn 0.9850 0.1453 -0.0933
vn 0.9895 0.1443 0.0123
vn 0.9998 0.0010 0.0173
vn -0.9998 0.0010 0.0173
vn -0.9902 0.1393 0.0125
vn -0.9861 0.1398 -0.0898
vn -0.9959 -0.0009 -0.0909
vn -0.1257 0.9863 0.1068
vn 0.1273 0.9858 0.1099
vn 0.1870 0.1954 -0.9627
vn 0.1431 0.6383 -0.7564
vn 0.5266 0.5426 -0.6545
vn 0.6274 0.1602 -0.7620
vn 0.1190 0.9241 -0.3631
vn 0.4544 0.8318 -0.3187
vn 0.4886 0.8691 -0.0776
vn 0.8546 0.5133 -0.0787
vn 0.8179 0.4763 -0.3227
vn 0.9191 0.1356 -0.3700
vn 0.9872 0.1198 0.1055
vn 0.8910 0.4385 0.1175
vn 0.8543 0.5031 0.1306
vn 0.9914 0.1208 0.0507
vn 0.8947 0.4460 0.0237
vn 0.8591 0.5118 0.0005
vn 0.4842 0.8750 -0.0037
vn 0.6513 0.7570 0.0524
vn 0.4844 0.8714 0.0774
vn -0.1815 0.1924 -0.9644
vn -0.6240 0.1593 -0.7651
vn -0.5315 0.5494 -0.6447
vn -0.1506 0.6376 -0.7555
vn -0.9210 0.1352 -0.3655
vn -0.8107 0.4862 -0.3263
vn -0.8557 0.5108 -0.0827
vn -0.4848 0.8707 -0.0822
vn -0.4621 0.8258 -0.3233
vn -0.1255 0.9235 -0.3625
vn -0.8507 0.5075 0.1367
vn -0.8910 0.4385 0.1175
vn -0.9872 0.1198 0.1055
vn -0.4866 0.8698 0.0817
vn -0.6513 0.7570 0.0524
vn -0.4799 0.8773 -0.0032
vn -0.8605 0.5095 0.0011
vn -0.8947 0.4460 0.0237
vn -0.9914 0.1208 0.0507
vn -0.8647 0.1209 0.4876
vn -0.7795 0.4537 0.4319
vn -0.8376 0.5036 0.2117
vn -0.5660 0.1412 0.8122
vn -0.4840 0.5142 0.7081
vn -0.1357 0.6264 0.7676
vn -0.1116 0.9198 0.3763
vn -0.4349 0.8161 0.3806
vn -0.4788 0.8647 0.1515
vn 0.8382 0.5049 0.2062
vn 0.7654 0.4787 0.4301
vn 0.8655 0.1306 0.4837
vn 0.4779 0.8652 0.1515
vn 0.4359 0.8147 0.3824
vn 0.1158 0.9187 0.3776
vn 0.1330 0.6337 0.7620
vn 0.4793 0.5400 0.6919
vn 0.5587 0.1540 0.8150
vn 0.9246 0.0204 -0.3803
vn 0.6434 0.0241 -0.7651
vn 0.1959 0.0086 -0.9806
vn -0.9949 0.0031 0.1008
vn -0.9984 0.0031 0.0567
vn 0.9949 0.0031 0.1008
vn 0.9984 0.0031 0.0567
vn -0.1845 -0.0004 -0.9828
vn -0.3568 -0.0008 -0.9342
vn -0.8195 -0.0023 -0.5731
vn -0.9832 -0.0018 -0.1826
vn -0.5819 0.0219 0.8130
vn -0.8663 0.0189 0.4991
vn 0.5735 -0.0067 0.8192
vn 0.8703 -0.0051 0.4925
vn 1.0000 -0.0000 -0.0000
vn -0.0000 -0.0000 1.0000
vn -1.0000 -0.0000 -0.0000
vn -0.0000 -0.0000 -1.0000
vt -0.063649 0.585058
vt -0.034346 0.616438
vt -0.023620 0.659304
vt -0.023620 1.194043
vt -0.103677 1.279774
vt -0.649764 1.279774
vt -0.729822 1.194043
vt -0.729822 0.659304
vt -0.719096 0.616438
vt -0.689793 0.585058
vt -0.649764 0.573572
vt -0.103677 0.573572
vt 0.259508 0.997299
vt 0.340917 0.997299
vt 0.340917 0.301672
vt 0.259508 0.301672
vt 0.832322 1.010990
vt 0.785211 1.010990
vt 0.785211 1.043400
vt 0.832322 1.043400
vt 0.976764 1.162130
vt 0.954872 1.178408
vt 0.954921 0.140594
vt 1.636485 0.140594
vt 1.636533 1.178408
vt 1.614642 1.162130
vt 1.614642 0.194191
vt 0.976764 0.194191
vt 0.785211 0.193214
vt 0.832322 0.193214
vt 0.832322 0.814337
vt 0.785211 0.814337
vt -0.035018 1.279774
vt -0.068140 1.279774
vt -0.114390 1.279774
vt -0.639052 1.279774
vt -0.685302 1.279774
vt -0.718424 1.279774
vt -0.729822 1.279774
vt -0.023620 1.279774
vt 0.984228 -0.042249
vt 1.607177 -0.042249
vt 0.340917 1.059939
vt 0.398638 1.059474
vt 0.396822 1.116888
vt 0.340917 1.119008
vt 1.637359 1.300527
vt 1.636921 1.248790
vt 1.685021 1.246573
vt 1.685205 1.284596
vt 1.686374 1.178408
vt 1.722989 1.178408
vt 1.711863 1.246578
vt 0.832322 0.144337
vt 0.864663 0.145873
vt 0.865712 0.193214
vt 0.832322 0.108409
vt 0.864675 0.119472
vt 0.832322 0.949076
vt 0.864662 0.936110
vt 0.865687 0.983596
vt 0.832322 0.877107
vt 0.864619 0.891985
vt 0.865637 0.845841
vt 1.723058 0.238624
vt 1.686238 0.186623
vt 1.704930 0.139483
vt 1.723212 0.172177
vt 1.678272 0.090876
vt 1.706952 0.040257
vt 1.718054 0.108637
vt -0.023620 1.248105
vt -0.023620 1.310075
vt -0.023620 1.363347
vt 0.340917 0.239032
vt 0.340917 0.178671
vt 0.397155 0.181672
vt 0.399640 0.239493
vt 0.832322 0.106937
vt 0.832322 0.143489
vt 0.864868 0.145593
vt 0.864868 0.119859
vt 0.866306 0.193214
vt 0.867152 1.178408
vt 0.904409 1.178408
vt 0.906172 1.246981
vt 0.879942 1.246981
vt 0.954488 1.250012
vt 0.954042 1.302646
vt 0.905859 1.284038
vt 0.864662 0.936110
vt 0.884453 0.040257
vt 0.913133 0.090876
vt 0.886475 0.139483
vt 0.873351 0.108637
vt 0.905168 0.186623
vt 0.868348 0.238624
vt 0.868193 0.172177
vt -0.727430 1.279774
vt 0.832322 1.090927
vt 0.864691 1.090381
vt 0.865736 1.046395
vt 0.340917 0.185385
vt 0.340917 0.238788
vt 0.396828 0.236181
vt 0.396850 0.198517
vt 0.398630 0.293377
vt 0.998946 -0.164375
vt 0.991139 -0.112620
vt 0.945612 -0.113048
vt 0.951283 -0.149368
vt 0.935445 -0.048868
vt 0.898978 -0.050173
vt 0.919896 -0.113513
vt 0.866306 1.042606
vt 0.864868 1.089491
vt 0.832322 1.092331
vt 1.694572 -0.044717
vt 1.657490 -0.043392
vt 1.644890 -0.111298
vt 1.670997 -0.112231
vt 1.596242 -0.113192
vt 1.588303 -0.165827
vt 1.639300 -0.148354
vt 0.340917 1.061141
vt 0.397155 1.061803
vt 0.399641 1.000605
vt 0.340917 1.115167
vt 0.397155 1.099839
vt 0.785211 0.143423
vt 0.785211 0.106974
vt 0.259508 1.120112
vt 0.259508 1.059939
vt 0.785211 0.949112
vt 0.785211 0.877133
vt 0.259508 0.239032
vt 0.259508 0.178858
vt 0.259508 0.237902
vt 0.259508 0.184028
vt 0.785211 1.091936
vt 0.259508 1.061068
vt 0.259508 1.114942
vt 0.028869 1.000000
vt 0.028869 0.000000
vt 0.971131 0.000000
vt 0.971131 1.000000
s 1
usemtl plastik
f 19/1/1 20/2/1 18/3/1 33/4/1 35/5/1 68/6/1 67/7/1 50/8/1 52/9/1 53/10/1 51/11/1 17/12/1
f 100/13/2 89/14/3 76/15/4 71/16/5
f 54/17/6 66/18/7 72/19/8 75/20/9
f 34/18/10 21/17/11 87/20/12 99/19/13
f 104/21/14 40/22/15 55/23/16 23/24/17 3/25/18 105/26/14 106/27/14 103/28/14
f 105/26/14 3/25/18 40/22/15 104/21/14
f 18/29/19 5/30/20 22/31/21 33/32/22
f 67/32/23 56/31/24 39/30/25 50/29/26
f 101/33/1 102/34/1 100/35/1 71/36/1 73/37/1 74/38/1 72/39/1 66/39/1 68/6/1 35/5/1 34/40/1 99/40/1
f 23/24/17 55/23/16 77/41/27 88/42/28
f 2/43/29 6/44/30 9/45/31 8/46/32
f 6/47/30 12/48/33 13/49/34 9/50/31
f 3/25/18 11/51/35 13/49/34 12/48/33
f 11/51/35 15/52/36 16/53/37 13/49/34
f 5/30/20 14/54/38 16/55/37 15/56/36
f 14/54/38 8/57/32 9/58/31 16/55/37
f 9/50/31 13/49/34 16/53/37
f 21/17/11 24/59/39 26/60/40 25/61/41
f 24/59/39 28/62/42 29/63/43 26/60/40
f 22/31/21 27/64/44 29/63/43 28/62/42
f 27/65/44 31/66/45 32/67/46 29/68/43
f 23/24/17 30/69/47 32/67/46 31/66/45
f 30/69/47 25/70/41 26/71/40 32/67/46
f 26/71/40 29/68/43 32/67/46
f 33/4/1 36/72/1 35/5/1
f 36/72/1 37/73/1 35/5/1
f 37/73/1 34/74/1 35/5/1
f 38/75/48 41/76/49 43/77/50 42/78/51
f 41/79/49 45/80/52 46/81/53 43/82/50
f 39/30/25 44/83/54 46/81/53 45/80/52
f 44/84/54 48/85/55 49/86/56 46/87/53
f 40/22/15 47/88/57 49/86/56 48/85/55
f 47/88/57 42/89/51 43/90/50 49/86/56
f 43/90/50 46/87/53 49/86/56
f 54/17/6 57/61/58 59/91/59 58/59/60
f 57/92/58 61/93/61 62/94/62 59/95/59
f 55/23/16 60/96/63 62/94/62 61/93/61
f 60/96/63 64/97/64 65/98/65 62/94/62
f 56/31/24 63/62/66 65/63/65 64/64/64
f 63/62/66 58/59/60 59/91/59 65/63/65
f 59/95/59 62/94/62 65/98/65
f 66/39/1 69/39/1 68/6/1
f 69/39/1 70/99/1 68/6/1
f 70/99/1 67/39/1 68/6/1
f 75/20/9 78/100/67 80/101/68 79/102/69
f 78/103/67 82/104/70 83/105/71 80/106/68
f 76/15/4 81/107/72 83/105/71 82/104/70
f 81/108/72 85/109/73 86/110/74 83/111/71
f 77/41/27 84/112/75 86/110/74 85/109/73
f 84/112/75 79/113/69 80/114/68 86/110/74
f 80/114/68 83/111/71 86/110/74
f 87/20/12 90/115/76 92/116/77 91/117/78
f 90/118/76 94/119/79 95/120/80 92/121/77
f 88/42/28 93/122/81 95/120/80 94/119/79
f 93/122/81 97/123/82 98/124/83 95/120/80
f 89/14/3 96/125/84 98/126/83 97/127/82
f 96/125/84 91/128/78 92/129/77 98/126/83
f 92/121/77 95/120/80 98/124/83
f 5/30/20 18/29/19 20/130/85 14/54/38
f 14/54/38 20/130/85 19/131/86 8/57/32
f 8/46/32 19/132/86 17/133/87 2/43/29
f 66/18/7 54/17/6 58/59/60 69/134/88
f 69/134/88 58/59/60 63/62/66 70/135/89
f 70/135/89 63/62/66 56/31/24 67/32/23
f 21/17/11 34/18/10 37/134/90 24/59/39
f 24/59/39 37/134/90 36/135/91 28/62/42
f 28/62/42 36/135/91 33/32/22 22/31/21
f 38/75/48 51/136/92 53/137/93 41/76/49
f 41/79/49 53/131/94 52/130/94 45/80/52
f 45/80/52 52/130/95 50/29/26 39/30/25
f 3/25/18 23/24/17 31/66/45 11/51/35
f 11/51/35 31/66/45 27/65/44 15/52/36
f 15/56/36 27/64/44 22/31/21 5/30/20
f 55/23/16 40/22/15 48/85/55 60/96/63
f 60/96/63 48/85/55 44/84/54 64/97/64
f 64/64/64 44/83/54 39/30/25 56/31/24
f 40/22/15 3/25/18 12/48/33 47/88/57
f 47/88/57 12/48/33 6/47/30 42/89/51
f 42/78/51 6/44/30 2/43/29 38/75/48
f 71/16/5 76/15/4 82/104/70 73/138/96
f 73/138/96 82/104/70 78/103/67 74/139/97
f 74/140/97 78/100/67 75/20/9 72/19/8
f 89/14/3 100/13/2 102/141/98 96/125/84
f 96/125/84 102/141/98 101/142/99 91/128/78
f 91/117/78 101/140/99 99/19/13 87/20/12
f 88/42/28 77/41/27 85/109/73 93/122/81
f 93/122/81 85/109/73 81/108/72 97/123/82
f 97/127/82 81/107/72 76/15/4 89/14/3
f 77/41/27 55/23/16 61/93/61 84/112/75
f 84/112/75 61/93/61 57/92/58 79/113/69
f 79/102/69 57/61/58 54/17/6 75/20/9
f 87/20/12 21/17/11 25/61/41 90/115/76
f 90/118/76 25/70/41 30/69/47 94/119/79
f 94/119/79 30/69/47 23/24/17 88/42/28
f 51/136/92 38/75/48 2/43/29 17/133/87
f 103/28/100 1/28/100 4/21/100 104/21/100
f 104/21/101 4/21/101 10/26/101 105/26/101
f 10/26/102 7/27/102 106/27/102 105/26/102
f 7/27/103 1/28/103 103/28/103 106/27/103
usemtl screen
f 4/143/14 1/144/14 7/145/14 10/146/14
